<svg version="1.2" baseProfile="tiny-ps" xmlns="http://www.w3.org/2000/svg" viewBox="0 0 1556 1557" width="1556" height="1557">
	<title>Lufthansa_Logo_2018-svg copy-svg</title>
	<style>
		tspan { white-space:pre }
		.shp0 { fill: #0a1d3d } 
	</style>
	<g id="path22">
		<path id="Layer" fill-rule="evenodd" class="shp0" d="M1555.71 778.26C1555.71 1208.64 1207.98 1556.49 777.84 1556.49C347.7 1556.49 0.03 1208.64 0.03 778.26C0.03 347.88 347.7 0.03 777.84 0.03C1207.98 0.03 1555.71 347.88 1555.71 778.26ZM1509 778.26C1509 374.37 1181.55 46.68 777.84 46.68C374.14 46.68 46.68 374.37 46.68 778.26C46.68 1182.15 374.14 1509.78 777.84 1509.78C1181.55 1509.78 1509 1182.15 1509 778.26ZM1079.46 623.48C1073.53 623.48 1068.57 623.66 1065.76 623.96C1062.53 629.88 1057.69 637.83 1050.51 648.9C1161.87 648.9 1263.01 658.05 1374.85 678.14L1343.27 708.64C1242.31 690.76 1158.46 683.58 1051.65 683.58C1036.04 683.58 1032.81 683.58 1029.04 683.7C1025.33 689.33 1016.96 700.21 1008.52 710.32C1018.03 709.72 1036.39 709.42 1061.75 709.42C1149.61 709.42 1231.73 715.94 1320.84 730.29L1289.26 760.92C1221.5 750.33 1138.55 744.29 1064.2 744.29C1037.77 744.29 1007.75 745.19 980.83 746.74C974.79 753.74 958.94 770.9 954.1 776.17C989.68 772.46 1028.92 770.72 1075.57 770.72C1142.02 770.72 1205.47 775.09 1265.52 783.94L1233.94 814.33C1191.12 809 1139.2 805.89 1093.33 805.89C974.91 805.89 881.61 831.55 785.14 890.58C877.06 989.21 1027.66 1051.65 1173.59 1051.65L1187.23 1051.65L1136.21 1100.99C925.81 1061.45 704.28 968.87 517.14 842.02C337.17 720.49 274.2 684.54 133.71 622.4L132.81 586.34L227.84 627.07L260.2 601.41L570.49 743.63L550.27 759.84L391 690.58L375.27 702.9L458.05 749.07C527.9 788.01 581.07 805.41 630.23 805.41C737.71 805.41 834.18 729.16 896.38 595.19C943.21 589.09 993.15 586.34 1053.2 586.34C1176.35 586.34 1295.96 598.12 1431.49 623.48L1398.47 655.41C1314.2 637.83 1170.9 623.48 1079.46 623.48Z" />
	</g>
</svg>