<?xml version="1.0" encoding="UTF-8"?>
<svg width="248px" height="300px" viewBox="0 0 248 300" version="1.1" xmlns="http://www.w3.org/2000/svg" xmlns:xlink="http://www.w3.org/1999/xlink">
    <!-- Generator: Sketch 63.1 (92452) - https://sketch.com -->
    <title>bbv_Startseite_Rakete_V02</title>
    <desc>Created with Sketch.</desc>
    <g id="Page-1" stroke="none" stroke-width="1" fill="none" fill-rule="evenodd">
        <g id="bbv_Startseite_Rakete_V02" fill-rule="nonzero">
            <path d="M242.186916,288.682243 C241.448598,288.682243 240.747664,288.841121 240.11215,289.11215 C240.149533,288.757009 240.17757,288.401869 240.17757,288.037383 C240.17757,283 236.35514,278.850467 231.448598,278.345794 C232.056075,276.934579 232.392523,275.373832 232.392523,273.738318 C232.392523,267.261682 227.140187,262.009346 220.663551,262.009346 C218.943925,262.009346 217.308411,262.392523 215.841121,263.056075 C212.28972,259.542056 207.429907,257.35514 202.046729,257.35514 C192.813084,257.35514 185.093458,263.728972 182.981308,272.308411 C182.065421,270.17757 180.551402,268.373832 178.64486,267.102804 C179.719626,265.233645 180.345794,263.074766 180.345794,260.766355 C180.345794,253.738318 174.64486,248.037383 167.616822,248.037383 C166.728972,248.037383 165.869159,248.130841 165.028037,248.299065 C165.028037,248.205607 165.056075,248.121495 165.056075,248.037383 C165.056075,245.981308 164.196262,244.130841 162.831776,242.813084 C163.579439,241.990654 164.037383,240.915888 164.037383,239.728972 C164.037383,237.53271 162.495327,235.700935 160.439252,235.242991 L160.439252,207.28972 L151.214953,207.28972 L151.214953,238.093458 C149.495327,238.803738 148.280374,240.495327 148.280374,242.46729 C148.280374,243.943925 148.962617,245.233645 150.018692,246.102804 C149.261682,246.308411 148.542056,246.682243 147.953271,247.271028 C146.841121,248.383178 146.420561,249.915888 146.682243,251.345794 C146.102804,251.719626 145.551402,252.140187 145.046729,252.654206 C142.747664,254.953271 141.869159,258.102804 142.345794,261.084112 C140.252336,258.485981 137.046729,256.813084 133.448598,256.813084 C127.149533,256.813084 122.037383,261.915888 122.037383,268.224299 C122.037383,268.813084 122.093458,269.392523 122.186916,269.953271 C119.943925,267.439252 116.691589,265.841121 113.056075,265.841121 C109.392523,265.841121 106.11215,267.457944 103.869159,270.009346 C103.579439,268.570093 102.971963,267.242991 102.102804,266.121495 C105.682243,265.495327 108.401869,262.392523 108.401869,258.635514 C108.401869,254.429907 105,251.028037 100.794393,251.018692 C101.476636,249.934579 101.88785,248.663551 101.88785,247.299065 C101.88785,244.056075 99.6728972,241.345794 96.6728972,240.551402 L96.6728972,207.28972 L87.4485981,207.28972 L87.4485981,236.149533 C84.7850467,236.149533 82.6261682,238.308411 82.6261682,240.971963 C82.6261682,242.327103 83.1962617,243.551402 84.0934579,244.429907 C81.682243,245.654206 80.0186916,248.140187 80.0186916,251.028037 C80.0186916,251.093458 80.0373832,251.158879 80.0373832,251.224299 C77.4766355,251.934579 75.4579439,253.925234 74.7009346,256.457944 C72.1028037,253.280374 68.1495327,251.252336 63.7196262,251.252336 C57.3551402,251.252336 51.9719626,255.439252 50.1682243,261.214953 C48.1869159,259.934579 45.8317757,259.17757 43.2990654,259.17757 C37.9906542,259.17757 33.4766355,262.448598 31.588785,267.074766 C30.317757,266.635514 28.953271,266.383178 27.5233645,266.383178 C20.8130841,266.383178 15.364486,271.691589 15.1028037,278.327103 C10.0747664,278.663551 6.10280374,282.831776 6.10280374,287.943925 C6.10280374,288.214953 6.12149533,288.485981 6.14018692,288.757009 C5.90654206,288.728972 5.6728972,288.682243 5.43925234,288.682243 C2.56074766,288.682243 0.224299065,291.018692 0.224299065,293.897196 C0.224299065,296.775701 2.56074766,299.11215 5.43925234,299.11215 L242.186916,299.11215 C245.065421,299.11215 247.401869,296.775701 247.401869,293.897196 C247.401869,291.018692 245.065421,288.682243 242.186916,288.682243 Z" id="Path" fill="#FFFFFF"></path>
            <rect id="Rectangle" fill="#FFFFFF" x="115.579439" y="208.850467" width="16.4672897" height="65.4766355"></rect>
            <rect id="Rectangle" fill="#801F20" x="85.9158879" y="203.158879" width="11.6635514" height="5.69158879"></rect>
            <rect id="Rectangle" fill="#801F20" x="150.009346" y="203.158879" width="11.6635514" height="5.69158879"></rect>
            <rect id="Rectangle" fill="#512020" x="113.065421" y="197.785047" width="21.4485981" height="12.5140187"></rect>
            <path d="M99.4299065,197.252336 L99.4299065,59.411215 C99.4299065,51.728972 95.9906542,45.4953271 91.7476636,45.4953271 C87.5046729,45.4953271 84.0654206,51.728972 84.0654206,59.411215 L84.0654206,197.242991 C82.728972,197.990654 81.8037383,199.411215 81.8037383,201.046729 C81.8037383,203.457944 83.7757009,205.429907 86.1869159,205.429907 L97.317757,205.429907 C99.728972,205.429907 101.700935,203.457944 101.700935,201.046729 C101.691589,199.420561 100.775701,198 99.4299065,197.252336 Z" id="Path" fill="#FFFFFF"></path>
            <path d="M163.523364,197.252336 L163.523364,59.411215 C163.523364,51.728972 160.084112,45.4953271 155.841121,45.4953271 C151.598131,45.4953271 148.158879,51.728972 148.158879,59.411215 L148.158879,197.242991 C146.82243,197.990654 145.897196,199.411215 145.897196,201.046729 C145.897196,203.457944 147.869159,205.429907 150.280374,205.429907 L161.411215,205.429907 C163.82243,205.429907 165.794393,203.457944 165.794393,201.046729 C165.785047,199.420561 164.859813,198 163.523364,197.252336 Z" id="Path" fill="#FFFFFF"></path>
            <path d="M110.102804,180.327103 L76.9065421,180.327103 L74.8224299,184.056075 C73.6261682,186.196262 74.9158879,188.878505 77.3271028,189.280374 L107.663551,194.401869 L111.981308,180.317757 L110.102804,180.317757 L110.102804,180.327103 Z" id="Path" fill="#801F20"></path>
            <path d="M137.401869,180.327103 L170.598131,180.327103 L172.682243,184.056075 C173.878505,186.196262 172.588785,188.878505 170.17757,189.280374 L139.841121,194.401869 L135.523364,180.317757 L137.401869,180.317757 L137.401869,180.327103 Z" id="Path" fill="#801F20"></path>
            <rect id="Rectangle" fill="#512020" x="99.411215" y="69.953271" width="48.728972" height="8.22429907"></rect>
            <rect id="Rectangle" fill="#512020" x="99.4766355" y="111.990654" width="48.6728972" height="8.22429907"></rect>
            <path d="M123.794393,0.439252336 C113.102804,0.439252336 104.429907,16.1401869 104.429907,35.5046729 L104.429907,151.121495 L143.158879,151.121495 L143.158879,35.5046729 C143.158879,16.1401869 134.485981,0.439252336 123.794393,0.439252336 Z" id="Path" fill="#801F20"></path>
            <path d="M168.943925,181.981308 C176.859813,181.981308 180.719626,172.308411 174.981308,166.859813 L152.280374,145.308411 C146.261682,139.588785 141.560748,132.635514 138.495327,124.925234 L124,88.3925234 L123.588785,88.3925234 L109.093458,124.925234 C106.028037,132.64486 101.327103,139.598131 95.3084112,145.308411 L72.6074766,166.859813 C66.8691589,172.308411 70.7196262,181.981308 78.6448598,181.981308 L168.943925,181.981308 Z" id="Path" fill="#512020"></path>
            <path d="M137.485981,182.233645 L137.485981,83.8130841 C137.485981,75.5327103 131.35514,59.588785 123.794393,59.588785 C116.233645,59.588785 110.102804,75.4392523 110.102804,83.8130841 L110.102804,182.242991 C106.728972,184.214953 104.448598,187.859813 104.448598,192.028037 L104.448598,200.046729 L143.140187,200.046729 L143.140187,192.028037 C143.140187,187.850467 140.850467,184.205607 137.485981,182.233645 Z" id="Path" fill="#FFFFFF"></path>
            <path d="M123.794393,60.4672897 C131.35514,60.4672897 137.485981,73.5700935 137.485981,89.7383178 L137.485981,83.8130841 C137.485981,66.7757009 131.35514,52.9626168 123.794393,52.9626168 C116.233645,52.9626168 110.102804,66.7757009 110.102804,83.8130841 L110.102804,89.7383178 C110.102804,73.5700935 116.233645,60.4672897 123.794393,60.4672897 Z" id="Path" fill="#512020"></path>
            <polygon id="Path" fill="#801F20" points="126.065421 210.299065 121.523364 210.299065 120.514019 176.859813 127.074766 176.859813"></polygon>
            <path d="M122.551402,72.1308411 L122.551402,76.0093458 L115.149533,76.5981308 C114.728972,76.635514 114.448598,76.1588785 114.691589,75.8037383 L115.990654,73.8878505 C116.738318,72.7850467 117.981308,72.1308411 119.308411,72.1308411 L122.551402,72.1308411 L122.551402,72.1308411 Z" id="Path" fill="#512020"></path>
            <path d="M124.803738,72.1308411 L124.803738,76.0093458 L132.205607,76.5981308 C132.626168,76.635514 132.906542,76.1588785 132.663551,75.8037383 L131.364486,73.8878505 C130.616822,72.7850467 129.373832,72.1308411 128.046729,72.1308411 L124.803738,72.1308411 L124.803738,72.1308411 Z" id="Path" fill="#512020"></path>
        </g>
    </g>
</svg>